<svg version="1.1" id="Layer_1" xmlns="http://www.w3.org/2000/svg" xmlns:xlink="http://www.w3.org/1999/xlink" x="0px" y="0px"
	 width="100%" viewBox="0 0 512 512" enable-background="new 0 0 512 512" xml:space="preserve">
<path fill="#FFD700" opacity="1.000000" stroke="none" 
	d="
M253.000000,513.000000 
	C168.687119,513.000000 84.874237,513.000000 1.030678,513.000000 
	C1.030678,342.395416 1.030678,171.790848 1.030678,1.093132 
	C171.562897,1.093132 342.125885,1.093132 512.844421,1.093132 
	C512.844421,171.666550 512.844421,342.333252 512.844421,513.000000 
	C426.457489,513.000000 339.978729,513.000000 253.000000,513.000000 
M176.499939,315.582855 
	C234.810486,315.588623 293.121033,315.605621 351.431519,315.549164 
	C353.296997,315.547363 355.938782,315.441071 356.904968,314.285248 
	C365.287354,304.257751 373.368713,293.978638 382.188599,282.963928 
	C334.276184,282.963928 287.441071,282.963928 239.131561,282.963928 
	C292.307739,242.438812 344.324188,202.797531 396.340607,163.156265 
	C381.065765,162.096024 366.304199,162.017517 351.546234,162.210052 
	C349.965210,162.230682 348.251007,163.634308 346.856995,164.726288 
	C292.971466,206.937469 239.116592,249.187790 185.256256,291.431152 
	C175.355118,299.196747 165.447876,306.954590 154.436768,315.583221 
	C162.345322,315.583221 168.922714,315.583221 176.499939,315.582855 
M228.499542,194.442383 
	C242.185287,194.442383 255.871033,194.442383 271.022522,194.442383 
	C217.851486,235.140625 165.973877,274.848816 114.096283,314.557037 
	C122.230545,315.584473 130.148651,315.743530 138.052521,315.478485 
	C140.166260,315.407623 142.563477,314.476349 144.270111,313.194153 
	C151.590866,307.693909 158.688889,301.898010 165.892517,296.240967 
	C221.157318,252.841293 276.429016,209.450378 331.689026,166.044647 
	C332.992371,165.020905 334.184601,163.855698 336.293762,161.992096 
	C333.540100,161.992096 332.213776,161.991592 330.887451,161.992157 
	C285.246307,162.011459 239.599701,162.416962 193.967896,161.773331 
	C182.838898,161.616364 174.787369,163.741638 168.688919,173.585434 
	C164.215424,180.806320 158.139969,187.034744 152.184769,194.444183 
	C177.973587,194.444183 202.736542,194.444183 228.499542,194.442383 
z"/>
<path fill="#1E1D1B" opacity="1.000000" stroke="none" 
	d="
M176.000031,315.583038 
	C168.922714,315.583221 162.345322,315.583221 154.436768,315.583221 
	C165.447876,306.954590 175.355118,299.196747 185.256256,291.431152 
	C239.116592,249.187790 292.971466,206.937469 346.856995,164.726288 
	C348.251007,163.634308 349.965210,162.230682 351.546234,162.210052 
	C366.304199,162.017517 381.065765,162.096024 396.340607,163.156265 
	C344.324188,202.797531 292.307739,242.438812 239.131561,282.963928 
	C287.441071,282.963928 334.276184,282.963928 382.188599,282.963928 
	C373.368713,293.978638 365.287354,304.257751 356.904968,314.285248 
	C355.938782,315.441071 353.296997,315.547363 351.431519,315.549164 
	C293.121033,315.605621 234.810486,315.588623 176.000031,315.583038 
z"/>
<path fill="#1E1D1B" opacity="1.000000" stroke="none" 
	d="
M227.999512,194.443283 
	C202.736542,194.444183 177.973587,194.444183 152.184769,194.444183 
	C158.139969,187.034744 164.215424,180.806320 168.688919,173.585434 
	C174.787369,163.741638 182.838898,161.616364 193.967896,161.773331 
	C239.599701,162.416962 285.246307,162.011459 330.887451,161.992157 
	C332.213776,161.991592 333.540100,161.992096 336.293762,161.992096 
	C334.184601,163.855698 332.992371,165.020905 331.689026,166.044647 
	C276.429016,209.450378 221.157318,252.841293 165.892517,296.240967 
	C158.688889,301.898010 151.590866,307.693909 144.270111,313.194153 
	C142.563477,314.476349 140.166260,315.407623 138.052521,315.478485 
	C130.148651,315.743530 122.230545,315.584473 114.096283,314.557037 
	C165.973877,274.848816 217.851486,235.140625 271.022522,194.442383 
	C255.871033,194.442383 242.185287,194.442383 227.999512,194.443283 
z"/>
</svg>