<?xml version="1.0" encoding="UTF-8"?>
<svg version="1.1" xmlns="http://www.w3.org/2000/svg" width="480" height="480">
<path d="M0 0 C158.4 0 316.8 0 480 0 C480 158.4 480 316.8 480 480 C321.6 480 163.2 480 0 480 C0 321.6 0 163.2 0 0 Z " fill="#E7C303" transform="translate(0,0)"/>
<path d="M0 0 C0.65845036 -0.00058914 1.31690071 -0.00117828 1.99530411 -0.00178528 C33.74187368 -0.02178141 65.1914723 1.23513967 96.4375 7.25 C96.68822502 12.12023715 96.86772232 16.9865808 96.98681641 21.86181641 C97.03653738 23.51287366 97.10434931 25.1635041 97.19189453 26.81298828 C97.88209784 40.17045229 95.2312565 47.25529773 86.4375 57.25 C85.28539479 58.72588962 84.13953073 60.20670455 83.00390625 61.6953125 C82.00792131 62.9261965 81.00670982 64.15287204 80 65.375 C79.45778809 66.03822266 78.91557617 66.70144531 78.35693359 67.38476562 C74.09542916 72.55278792 69.6528562 77.52203414 65.0703125 82.40625 C63.13253732 84.49927719 61.27443065 86.60918872 59.42578125 88.77734375 C54.62061598 94.292215 49.419606 99.4172657 44.24047852 104.57739258 C42.503564 106.308947 40.77206111 108.04578359 39.04101562 109.78320312 C33.86918075 114.95814304 28.6920747 120.06107822 23.12133789 124.8112793 C20.55104096 127.00741672 18.09876976 129.32076131 15.625 131.625 C10.97498869 135.92071772 6.18992192 139.98996318 1.25390625 143.95703125 C-1.20274083 145.95710315 -3.60408989 148.00808924 -5.99658203 150.08398438 C-14.16145879 157.14137083 -22.83040728 163.47638329 -31.57055664 169.79882812 C-33.58203594 171.26423233 -35.57496632 172.75232592 -37.5625 174.25 C-30.8445514 177.6089743 -21.01995354 176.42253572 -13.6796875 176.453125 C-12.55832901 176.45995804 -11.43697052 176.46679108 -10.28163147 176.47383118 C-6.66689019 176.49085028 -3.052279 176.49715742 0.5625 176.5 C2.40399124 176.50300613 2.40399124 176.50300613 4.28268433 176.506073 C25.53768393 176.51458354 46.4396001 175.74964998 67.4375 172.25 C68.7575 161.36 70.0775 150.47 71.4375 139.25 C81.6675 139.25 91.8975 139.25 102.4375 139.25 C102.61754593 150.59289343 102.24547994 161.45922298 100.77148438 172.69726562 C100.39254957 175.59356851 100.0321928 178.49194901 99.671875 181.390625 C99.40716343 183.48969873 99.1415481 185.58865869 98.875 187.6875 C98.74826904 188.68934326 98.62153809 189.69118652 98.4909668 190.72338867 C98.36890869 191.65900635 98.24685059 192.59462402 98.12109375 193.55859375 C97.95951782 194.80854126 97.95951782 194.80854126 97.79467773 196.08374023 C97.4375 198.25 97.4375 198.25 96.4375 201.25 C93.68821558 201.75423557 90.93818857 202.25353426 88.1875 202.75 C87.41019531 202.89308594 86.63289063 203.03617188 85.83203125 203.18359375 C85.07792969 203.31894531 84.32382812 203.45429688 83.546875 203.59375 C82.85561523 203.71943359 82.16435547 203.84511719 81.45214844 203.97460938 C79.4375 204.25 79.4375 204.25 75.4375 204.25 C75.4375 204.91 75.4375 205.57 75.4375 206.25 C81.3775 206.25 87.3175 206.25 93.4375 206.25 C93.4375 230.67 93.4375 255.09 93.4375 280.25 C100.3675 280.25 107.2975 280.25 114.4375 280.25 C114.4375 274.31 114.4375 268.37 114.4375 262.25 C119.3875 262.25 124.3375 262.25 129.4375 262.25 C129.41529388 261.09900818 129.39308777 259.94801636 129.37020874 258.762146 C129.16684749 247.87629617 129.01728283 236.99083525 128.91937828 226.10351181 C128.8673493 220.50700011 128.79686683 214.91203051 128.68310547 209.31640625 C128.57386107 203.90866365 128.51453653 198.50239705 128.48872757 193.09363556 C128.47035386 191.0379133 128.43447261 188.98226526 128.38019943 186.92717743 C127.90869881 168.32107599 127.90869881 168.32107599 134.29101562 161.16162109 C135.98051492 159.49760145 137.69359653 157.85691317 139.4375 156.25 C140.5776997 154.8362156 141.69327867 153.40128847 142.7578125 151.9296875 C143.22654785 151.29675781 143.6952832 150.66382813 144.17822266 150.01171875 C144.63503418 149.38910156 145.0918457 148.76648438 145.5625 148.125 C146.57186881 146.76744943 147.58228728 145.41067869 148.59375 144.0546875 C149.31498047 143.08740723 149.31498047 143.08740723 150.05078125 142.10058594 C152.02815079 139.46177236 154.03135714 136.84780228 156.0625 134.25 C156.67351562 133.46625 157.28453125 132.6825 157.9140625 131.875 C158.41679687 131.33875 158.91953125 130.8025 159.4375 130.25 C160.0975 130.25 160.7575 130.25 161.4375 130.25 C163.00014507 132.09092433 164.44351794 133.93533214 165.875 135.875 C166.77782156 137.07483942 167.68149698 138.27403673 168.5859375 139.47265625 C169.05483398 140.09672363 169.52373047 140.72079102 170.00683594 141.36376953 C171.84517791 143.7874948 173.72468473 146.17648522 175.61621094 148.55883789 C176.54568297 149.73674854 177.46552131 150.9223197 178.37597656 152.11499023 C180.51449941 154.90661092 182.59236101 157.39947454 185.1328125 159.8515625 C192.19078332 167.17503693 192.12080879 173.60326684 192 183.5 C191.88362092 187.75571494 191.70272126 192.00101937 191.4375 196.25 C198.58471753 195.11274849 204.79111805 193.09430453 211.375 190.125 C213.02781832 189.38843177 214.68268634 188.65644087 216.33984375 187.9296875 C217.41480103 187.44604736 217.41480103 187.44604736 218.51147461 186.95263672 C220.4375 186.25 220.4375 186.25 223.4375 186.25 C223.4375 189.55 223.4375 192.85 223.4375 196.25 C227.3975 196.25 231.3575 196.25 235.4375 196.25 C235.4375 211.43 235.4375 226.61 235.4375 242.25 C239.0675 242.25 242.6975 242.25 246.4375 242.25 C246.4375 277.23 246.4375 312.21 246.4375 348.25 C88.0375 348.25 -70.3625 348.25 -233.5625 348.25 C-233.5625 344.95 -233.5625 341.65 -233.5625 338.25 C-232.5725 338.25 -231.5825 338.25 -230.5625 338.25 C-230.5625 319.77 -230.5625 301.29 -230.5625 282.25 C-225.9425 282.25 -221.3225 282.25 -216.5625 282.25 C-216.5625 274.66 -216.5625 267.07 -216.5625 259.25 C-211.6125 259.25 -206.6625 259.25 -201.5625 259.25 C-201.73652344 257.13980469 -201.91054687 255.02960938 -202.08984375 252.85546875 C-203.45374155 232.0427788 -203.45374155 232.0427788 -200.39648438 225.91162109 C-197.23275602 222.31395724 -193.15173657 220.37185309 -188.85546875 218.38867188 C-184.70271703 216.32644508 -181.02745763 213.54614945 -177.25 210.875 C-175.64608917 209.78156542 -174.0406079 208.69043102 -172.43359375 207.6015625 C-166.04067959 203.22983332 -159.77692287 198.68225069 -153.515625 194.125 C-152.85498047 193.64546875 -152.19433594 193.1659375 -151.51367188 192.671875 C-150.19275477 191.70928476 -148.87645663 190.74032946 -147.56445312 189.765625 C-142.77984551 186.25 -142.77984551 186.25 -140.5625 186.25 C-140.2325 196.15 -139.9025 206.05 -139.5625 216.25 C-136.675 214.22875 -133.7875 212.2075 -130.8125 210.125 C-129.84530029 209.44904785 -128.87810059 208.7730957 -127.8815918 208.07666016 C-123.22889765 204.82443805 -118.58506031 201.56068136 -113.95703125 198.2734375 C-113.06274414 197.64066895 -112.16845703 197.00790039 -111.24707031 196.35595703 C-109.52868757 195.13964925 -107.81308118 193.91940738 -106.10058594 192.69482422 C-105.31586914 192.14068848 -104.53115234 191.58655273 -103.72265625 191.015625 C-103.03824463 190.52868164 -102.35383301 190.04173828 -101.64868164 189.54003906 C-99.5625 188.25 -99.5625 188.25 -94.5625 186.25 C-94.5625 192.85 -94.5625 199.45 -94.5625 206.25 C-85.9825 206.25 -77.4025 206.25 -68.5625 206.25 C-68.5625 218.13 -68.5625 230.01 -68.5625 242.25 C-54.3725 242.25 -40.1825 242.25 -25.5625 242.25 C-25.5625 230.7 -25.5625 219.15 -25.5625 207.25 C-29.8525 207.25 -34.1425 207.25 -38.5625 207.25 C-56.16419646 207.07269353 -73.20422633 204.01315377 -90.5625 201.25 C-90.5625 189.37 -90.5625 177.49 -90.5625 165.25 C-85.9425 162.61 -81.3225 159.97 -76.5625 157.25 C-73.630216 155.40713238 -70.74065736 153.56206817 -67.875 151.625 C-67.13008301 151.12411865 -66.38516602 150.6232373 -65.61767578 150.10717773 C-51.03374258 140.21365409 -37.09546441 129.52988134 -23.5625 118.25 C-22.98274414 117.76934082 -22.40298828 117.28868164 -21.80566406 116.79345703 C-14.37288015 110.62360747 -7.16797167 104.2447842 -0.09375 97.66796875 C1.48254823 96.20828442 3.0681604 94.75934125 4.65625 93.3125 C14.0644195 84.72456585 23.40477719 76.00870835 31.671875 66.296875 C33.8318342 63.79285151 36.07237993 61.37002302 38.3125 58.9375 C42.45251742 54.40109794 46.38749551 49.73970025 50.234375 44.953125 C51.98781343 42.8017431 53.76672854 40.68568797 55.57519531 38.58105469 C56.11219055 37.95575867 56.64918579 37.33046265 57.20245361 36.68621826 C57.61001892 36.21226624 58.01758423 35.73831421 58.4375 35.25 C40.82153527 32.59554162 23.42601712 31.76962794 5.63598633 31.85888672 C2.19325933 31.87596061 -1.24876997 31.86583122 -4.69147301 31.84852982 C-20.41690336 31.7821125 -35.81842325 32.49614188 -51.41625977 34.60693359 C-55.16407722 35.11189298 -58.77212072 35.4027955 -62.5625 35.25 C-62.87625319 38.49988024 -63.18825823 41.74992625 -63.5 45 C-63.63051758 46.35158203 -63.63051758 46.35158203 -63.76367188 47.73046875 C-64.41827598 54.56744497 -64.99201309 61.40415707 -65.5625 68.25 C-75.7925 68.25 -86.0225 68.25 -96.5625 68.25 C-96.89608691 53.46098027 -95.92298647 39.19012829 -93.99316406 24.52392578 C-93.69051384 22.22316641 -93.41347538 19.91896351 -93.15527344 17.61279297 C-93.00864258 16.43990723 -92.86201172 15.26702148 -92.7109375 14.05859375 C-92.58638184 12.99310303 -92.46182617 11.9276123 -92.33349609 10.82983398 C-91.5625 8.25 -91.5625 8.25 -89.76679993 7.13064575 C-87.61006164 6.26900148 -85.82134741 5.85249077 -83.52270508 5.57983398 C-82.73700638 5.48310898 -81.95130768 5.38638397 -81.14179993 5.28672791 C-80.29707626 5.19081863 -79.4523526 5.09490936 -78.58203125 4.99609375 C-77.25264778 4.83742577 -77.25264778 4.83742577 -75.89640808 4.67555237 C-74.01477706 4.45270255 -72.1327047 4.23355266 -70.25024414 4.01782227 C-67.42931312 3.69373976 -64.61017466 3.35668969 -61.79101562 3.01757812 C-41.15833747 0.572833 -20.77192133 0.01099411 0 0 Z " fill="#BFA207" transform="translate(233.5625,131.75)"/>
<path d="M0 0 C0.66 0 1.32 0 2 0 C3.87051669 2.31834397 5.63286853 4.65004222 7.375 7.0625 C11.51700628 12.69726271 15.72900051 18.24830922 20.125 23.6875 C25.52246144 30.37986024 30.80124358 37.15180425 36 44 C36.53093262 44.49129395 37.06186523 44.98258789 37.60888672 45.48876953 C42.79479323 50.8183469 42.60998511 56.30128528 42.57296753 63.34181213 C42.52661902 65.89539813 42.45157079 68.44715874 42.375 71 C42.3448678 72.74604786 42.31749772 74.49214569 42.29296875 76.23828125 C42.2272169 80.49343176 42.12387972 84.74616109 42 89 C51.6391987 87.98651984 59.8289189 84.85471457 68.5625 80.875 C71.03977754 79.76081169 73.52113056 78.65666102 76.00390625 77.5546875 C77.08486572 77.06468262 78.1658252 76.57467773 79.27954102 76.06982422 C82 75 82 75 85 75 C85 78.3 85 81.6 85 85 C86.98 85 88.96 85 91 85 C91 85.33 91 85.66 91 86 C90.25838623 86.08564209 89.51677246 86.17128418 88.75268555 86.25952148 C85.39723147 86.64888351 82.04236938 87.04313318 78.6875 87.4375 C76.93663086 87.63956055 76.93663086 87.63956055 75.15039062 87.84570312 C74.03212891 87.97783203 72.91386719 88.10996094 71.76171875 88.24609375 C70.73006592 88.36654053 69.69841309 88.4869873 68.63549805 88.61108398 C65.89982186 88.93653488 65.89982186 88.93653488 63 90 C59.90073407 110.05049117 58.11079301 129.72802758 57 150 C67.23 150 77.46 150 88 150 C88 146.04 88 142.08 88 138 C88.43064068 134.216514 88.90393539 130.50359606 89.5 126.75 C89.64308594 125.80253906 89.78617188 124.85507813 89.93359375 123.87890625 C90.28121436 121.5846102 90.63670404 119.29185645 91 117 C94.27012579 116.51592484 97.54121679 116.03868544 100.8125 115.5625 C102.17665039 115.36043945 102.17665039 115.36043945 103.56835938 115.15429688 C104.48037109 115.02216797 105.39238281 114.89003906 106.33203125 114.75390625 C107.15421143 114.63345947 107.9763916 114.5130127 108.82348633 114.38891602 C118.28698994 113.23025325 127.6268035 112.82898985 137.16015625 112.796875 C137.82370054 112.79404762 138.48724483 112.79122025 139.17089653 112.78830719 C142.69572196 112.77341144 146.22050762 112.76412639 149.74536133 112.75976562 C152.59673124 112.75541964 155.44779197 112.74166642 158.29907227 112.71875 C176.73484561 112.57337921 194.71006425 113.33678198 213 116 C212.06776796 117.25562999 211.13373439 118.50992254 210.19897461 119.76367188 C209.67903427 120.46230347 209.15909393 121.16093506 208.62339783 121.8807373 C206.07435283 125.20838496 203.328834 128.35267389 200.5625 131.5 C199.76102539 132.41845703 199.76102539 132.41845703 198.94335938 133.35546875 C197.85437909 134.60263225 196.76378846 135.84839141 195.67163086 137.09277344 C194.5390838 138.384939 193.40978222 139.67995506 192.28344727 140.97753906 C188.21685559 145.65596924 184.05720728 150.23274314 179.8125 154.75 C178.84074829 155.78435181 178.84074829 155.78435181 177.84936523 156.83959961 C170.25356535 164.89202346 162.61971164 172.92228885 154.1796875 180.1015625 C151.86252467 182.11973658 149.61821543 184.2030595 147.37329102 186.30078125 C141.1183755 192.14172191 134.69230051 197.66049384 128 203 C126.87030792 203.92091185 125.74144468 204.84284111 124.61328125 205.765625 C107.84990351 219.4161272 90.17153766 231.91231378 71.6875 243.125 C71.04659424 243.5159082 70.40568848 243.90681641 69.74536133 244.30957031 C65.24274731 247 65.24274731 247 63 247 C63 258.88 63 270.76 63 283 C66.63 283.33 70.26 283.66 74 284 C76.39032234 284.34315538 78.78069597 284.6865114 81.16748047 285.0534668 C96.7241602 287.42419507 112.29361094 288.12742283 128 289 C128 300.55 128 312.1 128 324 C113.81 324 99.62 324 85 324 C85 312.12 85 300.24 85 288 C76.42 288 67.84 288 59 288 C59 281.4 59 274.8 59 268 C52.22317226 272.16290847 45.73866226 276.5703089 39.3125 281.25 C33.23523966 285.67555814 27.12832103 290.04685185 20.9375 294.3125 C19.91039917 295.0235791 19.91039917 295.0235791 18.86254883 295.74902344 C14.12326885 299 14.12326885 299 13 299 C13 288.77 13 278.54 13 268 C-0.82674952 277.58946887 -0.82674952 277.58946887 -14.609375 287.2421875 C-15.29459229 287.72373291 -15.97980957 288.20527832 -16.68579102 288.70141602 C-18.02646914 289.65488524 -19.35772599 290.62173447 -20.67944336 291.60131836 C-24.47469837 294.38364903 -28.23533655 296.67180724 -32.45703125 298.76171875 C-40.76617928 303.14714661 -40.76617928 303.14714661 -47 310 C-49.68329245 320.09744006 -48.79401612 330.69059721 -48 341 C-52.95 341 -57.9 341 -63 341 C-63 348.59 -63 356.18 -63 364 C-67.62 364 -72.24 364 -77 364 C-77 382.48 -77 400.96 -77 420 C-77.99 420 -78.98 420 -80 420 C-80 347.4 -80 274.8 -80 200 C-73.4 200 -66.8 200 -60 200 C-60 192.08 -60 184.16 -60 176 C-53.4 176 -46.8 176 -40 176 C-40.02220612 174.47538651 -40.04441223 172.95077301 -40.06729126 171.37995911 C-40.27044482 156.97707937 -40.42072238 142.57471061 -40.51812172 128.17078114 C-40.56952911 120.76634201 -40.63951893 113.36297748 -40.75439453 105.95922852 C-40.85455804 99.50055681 -40.91869596 93.04266376 -40.94088495 86.58323687 C-40.95384244 83.16743797 -40.98393979 79.75386507 -41.05730057 76.33878517 C-41.52879082 51.6616843 -41.52879082 51.6616843 -35.16064453 44.01123047 C-33.48350002 42.29758072 -31.76720503 40.6206158 -30 39 C-28.78786104 37.49887924 -27.59850102 35.97844289 -26.453125 34.42578125 C-25.38574317 33.0544333 -24.31803458 31.68333963 -23.25 30.3125 C-22.67217773 29.56991943 -22.09435547 28.82733887 -21.49902344 28.06225586 C-18.35628727 24.02371282 -15.21045129 19.98760407 -12.0625 15.953125 C-11.4240918 15.13416748 -10.78568359 14.31520996 -10.12792969 13.47143555 C-8.90030428 11.89668517 -7.67182423 10.32260057 -6.44238281 8.74926758 C-5.6123877 7.68421997 -5.6123877 7.68421997 -4.765625 6.59765625 C-4.27868164 5.97383057 -3.79173828 5.35000488 -3.29003906 4.70727539 C-2.13594686 3.17991604 -1.06189314 1.59283971 0 0 Z " fill="#E7C303" transform="translate(80,50)"/>
<path d="M0 0 C76.89 0 153.78 0 233 0 C233 0.99 233 1.98 233 3 C225.41 3 217.82 3 210 3 C210 45.57 210 88.14 210 132 C205.49073404 132.90185319 201.19428587 133.28431693 196.625 133.5 C192.538815 133.69492402 188.53774794 133.91924808 184.48828125 134.52734375 C180.47545936 135.07107438 176.60372175 135.11056577 172.5625 135.0625 C171.83095703 135.05798828 171.09941406 135.05347656 170.34570312 135.04882812 C168.56376581 135.03718148 166.78187137 135.01925191 165 135 C165 131.7 165 128.4 165 125 C161.95739926 126.20602082 158.91595179 127.41483365 155.875 128.625 C154.96516357 128.98529297 154.05532715 129.34558594 153.11791992 129.71679688 C148.99814811 131.35787986 144.89954089 133.0116237 140.87109375 134.8671875 C139.69675781 135.40601563 138.52242187 135.94484375 137.3125 136.5 C136.29800781 136.9846875 135.28351563 137.469375 134.23828125 137.96875 C130.07551229 139.29440863 126.32888923 139.21780575 122 139 C122.03778564 137.96818604 122.07557129 136.93637207 122.11450195 135.87329102 C123.76159379 111.31664445 123.76159379 111.31664445 113.42382812 90.23168945 C112.23113132 89.04205498 111.01793809 87.87258029 109.78417969 86.72558594 C106.79548317 83.83504037 104.34903904 80.53448753 101.8125 77.25 C100.83179622 76.02674269 99.84876039 74.80535097 98.86328125 73.5859375 C95.22249821 69.04700405 91.6867334 64.42962075 88.15625 59.8046875 C86.71306891 57.92750629 85.23306186 56.07809834 83.71875 54.2578125 C82 52 82 52 82 50 C81.34 50 80.68 50 80 50 C79.72704102 50.58378418 79.45408203 51.16756836 79.17285156 51.76904297 C78.0222272 53.9577202 76.7616631 55.75512089 75.234375 57.6953125 C74.68096436 58.40220215 74.12755371 59.1090918 73.55737305 59.83740234 C72.96093994 60.59230957 72.36450684 61.3472168 71.75 62.125 C70.48041099 63.74474639 69.21088145 65.3645394 67.94140625 66.984375 C67.28930176 67.81388672 66.63719727 68.64339844 65.96533203 69.49804688 C62.86201572 73.44870346 59.77409696 77.41127657 56.6875 81.375 C56.1502832 82.06223145 55.61306641 82.74946289 55.05957031 83.45751953 C53.99226079 84.82676956 52.94344911 86.21065589 51.91439819 87.60888672 C50 90 50 90 47.73300171 92.06735229 C37.9800999 102.08212565 39.7406084 115.10542797 39.88552547 128.25593472 C39.91390046 131.69930992 39.89091422 135.14235993 39.87367249 138.58575439 C39.84876628 145.08808592 39.86919983 151.58942998 39.90644604 158.09167027 C39.94664634 165.50181758 39.93550771 172.91161989 39.92032993 180.32182837 C39.89027885 195.54819884 39.92563133 210.77375521 40 226 C33.4 226 26.8 226 20 226 C20 233.92 20 241.84 20 250 C13.4 250 6.8 250 0 250 C0 167.5 0 85 0 0 Z " fill="#FED600" transform="translate(0,0)"/>
<path d="M0 0 C79.86 0 159.72 0 242 0 C242 51.48 242 102.96 242 156 C240.02 156 238.04 156 236 156 C236 139.17 236 122.34 236 105 C233.03 105 230.06 105 227 105 C227 103.02 227 101.04 227 99 C206.54 99 186.08 99 165 99 C165 100.98 165 102.96 165 105 C161.7 105 158.4 105 155 105 C155.185625 106.24652344 155.37125 107.49304688 155.5625 108.77734375 C156.37653444 116.8059269 156.76523676 123.42166677 151.54296875 130.0078125 C148.17987341 133.70915465 144.58234418 137.13547549 140.80932617 140.41625977 C140.21224854 140.93889404 139.6151709 141.46152832 139 142 C138.43732422 142.39477539 137.87464844 142.78955078 137.29492188 143.19628906 C135.14714938 146.18794501 135.51770016 149.61384439 135.48828125 153.16796875 C135.47033005 153.96278152 135.45237885 154.7575943 135.43388367 155.57649231 C135.3797303 158.11344101 135.34586972 160.65020107 135.3125 163.1875 C135.27933126 164.90822941 135.24484201 166.6289339 135.20898438 168.34960938 C135.12151527 172.56643412 135.06149347 176.78239613 135 181 C126.42 181 117.84 181 109 181 C109 173.74 109 166.48 109 159 C104.38 159 99.76 159 95 159 C95 141.18 95 123.36 95 105 C78.17 105 61.34 105 44 105 C44.103125 99.781875 44.20625 94.56375 44.3125 89.1875 C44.61525391 77.73388755 44.61525391 77.73388755 40.28515625 67.5703125 C37.2207988 64.74793718 33.67912035 62.93009781 30 61 C27.14470518 59.34559465 24.96977082 57.67057495 23 55 C22.03937499 51.00137924 22.18277465 47.13159777 22.31640625 43.0390625 C22.32631088 41.89335785 22.33621552 40.7476532 22.34642029 39.56723022 C22.38551325 35.91850187 22.47333548 32.27281444 22.5625 28.625 C22.59762 26.14717895 22.62955778 23.66931061 22.65820312 21.19140625 C22.72930385 15.12549887 22.86628173 9.06614007 23 3 C15.41 3 7.82 3 0 3 C0 2.01 0 1.02 0 0 Z " fill="#FED600" transform="translate(238,0)"/>
<path d="M0 0 C0.65845036 -0.00058914 1.31690071 -0.00117828 1.99530411 -0.00178528 C33.74187368 -0.02178141 65.1914723 1.23513967 96.4375 7.25 C96.68822502 12.12023715 96.86772232 16.9865808 96.98681641 21.86181641 C97.03653738 23.51287366 97.10434931 25.1635041 97.19189453 26.81298828 C97.88209784 40.17045229 95.2312565 47.25529773 86.4375 57.25 C85.28539479 58.72588962 84.13953073 60.20670455 83.00390625 61.6953125 C82.00792131 62.9261965 81.00670982 64.15287204 80 65.375 C79.18668213 66.36983398 79.18668213 66.36983398 78.35693359 67.38476562 C74.09542916 72.55278792 69.6528562 77.52203414 65.0703125 82.40625 C63.13253732 84.49927719 61.27443065 86.60918872 59.42578125 88.77734375 C54.62061598 94.292215 49.419606 99.4172657 44.24047852 104.57739258 C42.503564 106.308947 40.77206111 108.04578359 39.04101562 109.78320312 C33.86918075 114.95814304 28.6920747 120.06107822 23.12133789 124.8112793 C20.55104096 127.00741672 18.09876976 129.32076131 15.625 131.625 C10.97498869 135.92071772 6.18992192 139.98996318 1.25390625 143.95703125 C-1.20274083 145.95710315 -3.60408989 148.00808924 -5.99658203 150.08398438 C-14.16145879 157.14137083 -22.83040728 163.47638329 -31.57055664 169.79882812 C-33.58203594 171.26423233 -35.57496632 172.75232592 -37.5625 174.25 C-30.8445514 177.6089743 -21.01995354 176.42253572 -13.6796875 176.453125 C-12.55832901 176.45995804 -11.43697052 176.46679108 -10.28163147 176.47383118 C-6.66689019 176.49085028 -3.052279 176.49715742 0.5625 176.5 C1.79016083 176.50200409 3.01782166 176.50400818 4.28268433 176.506073 C25.53768393 176.51458354 46.4396001 175.74964998 67.4375 172.25 C68.7575 161.36 70.0775 150.47 71.4375 139.25 C81.6675 139.25 91.8975 139.25 102.4375 139.25 C102.61754593 150.59289343 102.24547994 161.45922298 100.77148438 172.69726562 C100.39254957 175.59356851 100.0321928 178.49194901 99.671875 181.390625 C99.40716343 183.48969873 99.1415481 185.58865869 98.875 187.6875 C98.74826904 188.68934326 98.62153809 189.69118652 98.4909668 190.72338867 C98.36890869 191.65900635 98.24685059 192.59462402 98.12109375 193.55859375 C98.01337646 194.39189209 97.90565918 195.22519043 97.79467773 196.08374023 C97.4375 198.25 97.4375 198.25 96.4375 201.25 C70.96583191 205.60059114 70.96583191 205.60059114 59.328125 206.07421875 C56.55318586 206.16371292 56.55318586 206.16371292 54.35888672 206.7265625 C50.18791218 207.47389406 46.03386458 207.62068043 41.8046875 207.80078125 C40.8427951 207.84262039 39.88090271 207.88445953 38.88986206 207.92756653 C26.78383705 208.41003945 14.67661202 208.44972255 2.5625 208.4375 C1.35583679 208.43656342 0.14917358 208.43562683 -1.09405518 208.43466187 C-31.4915679 208.38367703 -60.54461549 206.16672246 -90.5625 201.25 C-90.5625 189.37 -90.5625 177.49 -90.5625 165.25 C-85.9425 162.61 -81.3225 159.97 -76.5625 157.25 C-73.630216 155.40713238 -70.74065736 153.56206817 -67.875 151.625 C-66.75762451 150.87367798 -66.75762451 150.87367798 -65.61767578 150.10717773 C-51.03374258 140.21365409 -37.09546441 129.52988134 -23.5625 118.25 C-22.98274414 117.76934082 -22.40298828 117.28868164 -21.80566406 116.79345703 C-14.37288015 110.62360747 -7.16797167 104.2447842 -0.09375 97.66796875 C1.48254823 96.20828442 3.0681604 94.75934125 4.65625 93.3125 C14.0644195 84.72456585 23.40477719 76.00870835 31.671875 66.296875 C33.8318342 63.79285151 36.07237993 61.37002302 38.3125 58.9375 C42.45251742 54.40109794 46.38749551 49.73970025 50.234375 44.953125 C51.98781343 42.8017431 53.76672854 40.68568797 55.57519531 38.58105469 C56.11219055 37.95575867 56.64918579 37.33046265 57.20245361 36.68621826 C57.61001892 36.21226624 58.01758423 35.73831421 58.4375 35.25 C40.82153527 32.59554162 23.42601712 31.76962794 5.63598633 31.85888672 C2.19325933 31.87596061 -1.24876997 31.86583122 -4.69147301 31.84852982 C-20.41690336 31.7821125 -35.81842325 32.49614188 -51.41625977 34.60693359 C-55.16407722 35.11189298 -58.77212072 35.4027955 -62.5625 35.25 C-62.87625319 38.49988024 -63.18825823 41.74992625 -63.5 45 C-63.58701172 45.90105469 -63.67402344 46.80210937 -63.76367188 47.73046875 C-64.41827598 54.56744497 -64.99201309 61.40415707 -65.5625 68.25 C-75.7925 68.25 -86.0225 68.25 -96.5625 68.25 C-96.89608691 53.46098027 -95.92298647 39.19012829 -93.99316406 24.52392578 C-93.69051384 22.22316641 -93.41347538 19.91896351 -93.15527344 17.61279297 C-93.00864258 16.43990723 -92.86201172 15.26702148 -92.7109375 14.05859375 C-92.58638184 12.99310303 -92.46182617 11.9276123 -92.33349609 10.82983398 C-91.5625 8.25 -91.5625 8.25 -89.76679993 7.13064575 C-87.61006164 6.26900148 -85.82134741 5.85249077 -83.52270508 5.57983398 C-82.34415703 5.43474648 -82.34415703 5.43474648 -81.14179993 5.28672791 C-80.29707626 5.19081863 -79.4523526 5.09490936 -78.58203125 4.99609375 C-77.25264778 4.83742577 -77.25264778 4.83742577 -75.89640808 4.67555237 C-74.01477706 4.45270255 -72.1327047 4.23355266 -70.25024414 4.01782227 C-67.42931312 3.69373976 -64.61017466 3.35668969 -61.79101562 3.01757812 C-41.15833747 0.572833 -20.77192133 0.01099411 0 0 Z " fill="#1B1B1A" transform="translate(233.5625,131.75)"/>
<path d="M0 0 C1.34615493 12.30770225 1.09824685 24.63752318 1 37 C2.32 37 3.64 37 5 37 C5 39.31 5 41.62 5 44 C6.32 44 7.64 44 9 44 C8.67 64.46 8.34 84.92 8 106 C8.66 106 9.32 106 10 106 C9.93192139 105.22398437 9.86384277 104.44796875 9.79370117 103.6484375 C8.11267893 81.70184912 8.11267893 81.70184912 12.2265625 75.8125 C15.03378833 74.163699 17.75841743 72.94267308 20.82861328 71.87109375 C25.2314024 70.1048298 29.19836599 67.44511623 33.25 65 C34.89770845 64.03594698 36.54851419 63.07715777 38.203125 62.125 C38.91114258 61.71507812 39.61916016 61.30515625 40.34863281 60.8828125 C42 60 42 60 43 60 C43 71.22 43 82.44 43 94 C53.89 94 64.78 94 76 94 C76 85.09 76 76.18 76 67 C82.6 67 89.2 67 96 67 C96 62.05 96 57.1 96 52 C100.61779597 53.84711839 103.98702138 56.03595807 107.875 59 C115.40003627 64.63647363 123.1425088 69.83650578 131 75 C131 67.41 131 59.82 131 52 C138.86825688 56.49614679 138.86825688 56.49614679 142.390625 58.99609375 C143.58171875 59.83624023 143.58171875 59.83624023 144.796875 60.69335938 C145.60640625 61.26892578 146.4159375 61.84449219 147.25 62.4375 C157.08916387 69.40967778 167.0439873 76.18799131 177 83 C177 99.5 177 116 177 133 C101.76 133 26.52 133 -51 133 C-51 129.7 -51 126.4 -51 123 C-50.01 123 -49.02 123 -48 123 C-48 104.52 -48 86.04 -48 67 C-43.38 67 -38.76 67 -34 67 C-34 59.41 -34 51.82 -34 44 C-29.05 44 -24.1 44 -19 44 C-19.17402344 41.88980469 -19.34804688 39.77960938 -19.52734375 37.60546875 C-20.89754526 16.35259025 -20.89754526 16.35259025 -17.57617188 10.484375 C-13.72325119 6.39454334 -9.11919757 4.16516881 -4 2 C-1 0 -1 0 0 0 Z " fill="#9E870B" transform="translate(51,347)"/>
<path d="M0 0 C0.29107173 4.69120926 0.5755373 9.38276165 0.85449219 14.07470703 C0.94978498 15.66302684 1.04672764 17.25124873 1.14550781 18.83935547 C1.81231325 29.58308794 2.09831813 40.23416443 2 51 C9.26 51 16.52 51 24 51 C24 52.98 24 54.96 24 57 C25.65 57 27.3 57 29 57 C29 57.33 29 57.66 29 58 C8.77221876 60.69799423 -11.29488623 61.30980259 -31.6875 61.3125 C-32.89076935 61.31572266 -34.0940387 61.31894531 -35.33377075 61.32226562 C-38.83075383 61.32798203 -42.32727772 61.31759574 -45.82421875 61.30078125 C-46.85878204 61.30157181 -47.89334534 61.30236237 -48.95925903 61.30317688 C-56.44627012 61.23256608 -63.63114873 60.30229662 -71 59 C-66.49138819 54.13445642 -61.30408002 50.33354243 -56 46.375 C-48.75976446 40.9184014 -41.68337765 35.36069921 -34.828125 29.4296875 C-32.1388065 27.11925089 -29.39567503 24.89917919 -26.625 22.6875 C-21.25346488 18.32707738 -16.22708835 13.63388966 -11.21337891 8.87182617 C-1.85345874 0 -1.85345874 0 0 0 Z " fill="#E5C203" transform="translate(266,248)"/>
<path d="M0 0 C4.95 0 9.9 0 15 0 C15 29.37 15 58.74 15 89 C4.44 89 -6.12 89 -17 89 C-17 85.7 -17 82.4 -17 79 C-16.01 79 -15.02 79 -14 79 C-14 60.52 -14 42.04 -14 23 C-9.38 23 -4.76 23 0 23 C0 15.41 0 7.82 0 0 Z " fill="#BFA207" transform="translate(17,391)"/>
<path d="M0 0 C2.805 0.020625 5.61 0.04125 8.5 0.0625 C8.5 11.6125 8.5 23.1625 8.5 35.0625 C-1.4 35.0625 -11.3 35.0625 -21.5 35.0625 C-21.5 24.5025 -21.5 13.9425 -21.5 3.0625 C-14.64427598 -0.36536201 -7.51511029 -0.07892263 0 0 Z " fill="#FDD500" transform="translate(201.5,163.9375)"/>
<path d="M0 0 C1.2888429 3.80314298 0.94346552 7.45562174 0.66015625 11.390625 C0.59144569 12.44754547 0.59144569 12.44754547 0.52134705 13.52581787 C0.37425755 15.76764643 0.21850113 18.00877569 0.0625 20.25 C-0.03898443 21.77339944 -0.13990233 23.29683673 -0.24023438 24.8203125 C-0.48586884 28.54746031 -0.74322205 32.27353654 -1 36 C-6.28 36 -11.56 36 -17 36 C-19.23251706 15.41123156 -19.23251706 15.41123156 -15.56005859 9.79980469 C-11.60977184 5.89695933 -6.97844918 3.37734933 -2 1 C-1.34 0.67 -0.68 0.34 0 0 Z " fill="#BFA207" transform="translate(49,348)"/>
<path d="M0 0 C0.33 0 0.66 0 1 0 C1.29107173 4.69120926 1.5755373 9.38276165 1.85449219 14.07470703 C1.94978498 15.66302684 2.04672764 17.25124873 2.14550781 18.83935547 C2.81231325 29.58308794 3.09831813 40.23416443 3 51 C10.26 51 17.52 51 25 51 C25 52.98 25 54.96 25 57 C26.65 57 28.3 57 30 57 C30 57.33 30 57.66 30 58 C25.62639779 58.43344081 21.25222278 58.86040642 16.87744141 59.28173828 C15.39354991 59.42552746 13.90981983 59.5709939 12.42626953 59.71826172 C4.26545499 60.52718939 -3.78717681 61.19438635 -12 61 C-12 60.67 -12 60.34 -12 60 C-10.35 60 -8.7 60 -7 60 C-7 57.03 -7 54.06 -7 51 C-5.68 51 -4.36 51 -3 51 C-2.95101563 49.9996875 -2.90203125 48.999375 -2.8515625 47.96875 C-2.04708971 31.97033151 -1.01716971 15.98599911 0 0 Z " fill="#BDA108" transform="translate(265,248)"/>
<path d="M0 0 C8.25 0 16.5 0 25 0 C25.33 16.5 25.66 33 26 50 C24.68 50 23.36 50 22 50 C22 37.79 22 25.58 22 13 C20.35 12.34 18.7 11.68 17 11 C14.00521541 9.41104982 11.10377746 7.66575496 8.1875 5.9375 C7.39923828 5.47794922 6.61097656 5.01839844 5.79882812 4.54492188 C5.05439453 4.10599609 4.30996094 3.66707031 3.54296875 3.21484375 C2.86258545 2.81386475 2.18220215 2.41288574 1.48120117 1.99975586 C0.99240479 1.66983643 0.5036084 1.33991699 0 1 C0 0.67 0 0.34 0 0 Z " fill="#E6C303" transform="translate(229,340)"/>
<path d="M0 0 C0.33 0 0.66 0 1 0 C1.25422542 3.2902379 1.47409878 6.58188225 1.6875 9.875 C1.76033203 10.81214844 1.83316406 11.74929688 1.90820312 12.71484375 C1.96298828 13.61074219 2.01777344 14.50664062 2.07421875 15.4296875 C2.13182373 16.25710449 2.18942871 17.08452148 2.2487793 17.93701172 C2.16668213 18.61779785 2.08458496 19.29858398 2 20 C1.01 20.66 0.02 21.32 -1 22 C-1.12886183 14.59760355 -0.79725902 7.36040917 0 0 Z " fill="#C6A807" transform="translate(265,248)"/>
</svg>
